<?xml version="1.0" encoding="UTF-8"?><svg xmlns="http://www.w3.org/2000/svg" width="1440" height="900"><defs><linearGradient id="a" x1="35.726%" x2="60.811%" y1="61.342%" y2="40.074%"><stop offset="0%" stop-color="#1B7339"/><stop offset="14.7%" stop-color="#2C7E3F"/><stop offset="43.85%" stop-color="#59994F"/><stop offset="84.32%" stop-color="#A0C668"/><stop offset="100%" stop-color="#BDD873"/></linearGradient><linearGradient id="c" x1="31.025%" x2="75.463%" y1="65.272%" y2="38.627%"><stop offset="0%" stop-color="#1B7339"/><stop offset="14.7%" stop-color="#2C7E3F"/><stop offset="43.85%" stop-color="#59994F"/><stop offset="84.32%" stop-color="#A0C668"/><stop offset="100%" stop-color="#BDD873"/></linearGradient><filter id="b" width="100%" height="100%" x="0%" y="0%" filterUnits="objectBoundingBox"><feGaussianBlur in="SourceGraphic"/></filter><filter id="d" width="100%" height="100%" x="0%" y="0%" filterUnits="objectBoundingBox"><feGaussianBlur in="SourceGraphic"/></filter></defs><g fill="none" fill-rule="nonzero"><path fill="url(#a)" d="M1863.696 241.29c23.076 31.335-212.893 54.778-149.068 191.542 158.714 340.092-565.913 782.236-565.913 1198.348 0 152.722 64.707 274.851 207.286 356.82 349.31-139.776 597.198-491.978 597.198-904.379-.08-267.1 78.69-667.014-89.503-842.332z" filter="url(#b)" transform="translate(-386.551 -518.701)"/><path fill="url(#c)" d="M432.494 1445.39c0-473.754 867.368-837.584 837.076-1328.985a908.046 908.046 0 00-133.46-42.304c-15.542 79.083-56.777 157.588-106.022 229.332-74.54 107.532-185.083 217.869-290.867 322.927-209.269 207.891-425.595 422.791-422.74 671.007-.556 17.73-7.534 84.03 22.758 167.566 1.745 4.865-5.392 7.917-8.168 3.546-116.886-181.915-104.436-368.777-104.356-371.086v-.743c-4.52-275.758 457.637-525.92 639.944-727.13 104.912-115.862 181.594-233.455 226-369.52C639.152 65.146 0 529.795 0 1019.3c0 534.446 416.238 967.875 930.013 968.7-517.105-142.25-497.519-542.61-497.519-542.61z" filter="url(#d)" transform="translate(-386.551 -518.701)"/></g></svg>