
<svg width="36px" height="36px" viewBox="0 0 36 36" version="1.1" xmlns="http://www.w3.org/2000/svg" xmlns:xlink="http://www.w3.org/1999/xlink">
    <g id="Page-1" stroke="none" stroke-width="1" fill="none" fill-rule="evenodd">
        <g id="Desktop-HD" transform="translate(-702.000000, -569.000000)" fill="#317951" fill-rule="nonzero">
            <g id="green-claim" transform="translate(500.886013, 569.279758)">
                <path d="M236.811795,12.4859324 C236.488632,9.4871321 235.29013,7.10857581 233.437032,5.78856931 C233.184481,5.60853951 232.856865,5.57100679 232.569326,5.68805797 C232.281151,5.80510915 232.073767,6.06147668 232.019058,6.36746373 C231.817399,7.49598976 229.902595,9.52975399 228.759437,10.2594154 C221.759904,14.7296254 221.51117,20.0643601 221.504173,20.2882841 C221.488269,20.7882962 221.880772,21.2068814 222.380784,21.2227851 C222.875071,21.2469587 223.298745,20.8461856 223.315285,20.3461735 C223.317194,20.301007 223.531576,15.7480979 229.735288,11.7868061 C230.548285,11.2677095 232.332043,9.6951524 233.257638,8.07742877 C234.183233,9.17223898 234.806021,10.7855096 235.010225,12.6805936 C235.395094,16.2589245 234.288197,20.0662685 232.190182,22.3786654 C229.304616,25.5543148 224.79242,26.0568715 222.908787,26.1211224 C224.289227,23.4251284 226.240929,20.5433793 228.420371,19.758373 C228.89112,19.5891577 229.136037,19.0700612 228.966185,18.5993119 C228.796334,18.1279264 228.276601,17.8842819 227.807124,18.0541333 C224.356023,19.2958936 221.76881,24.0676376 220.411271,27.1561348 C219.186687,22.9982733 216.731157,17.60056 211.795286,12.6646899 C211.440952,12.3103556 210.867783,12.3103556 210.513449,12.6646899 C210.159115,13.0190242 210.159115,13.5921933 210.513449,13.9465275 C212.733604,16.1666831 214.42194,18.5038897 215.708867,20.770484 C213.786429,20.5452877 210.293342,19.7819105 207.127871,17.2055123 C204.887995,15.3823129 203.495467,12.0349037 203.495467,8.46484273 C203.495467,5.94124476 204.194594,3.71790851 205.400094,2.29675453 C206.566152,3.59195126 208.310469,4.42339632 209.64956,5.05318256 C210.092955,5.261839 210.51154,5.48067382 210.833431,5.65879518 C217.483719,9.34972419 217.76935,17.213146 217.77253,17.3142935 C217.783345,17.8041273 218.186662,18.2831465 218.677769,18.2831465 C218.684766,18.2831465 218.691128,18.2831465 218.698761,18.2831465 C219.198773,18.2831465 219.59573,17.7697753 219.584279,17.2697632 C219.576645,16.9065228 219.298013,8.23710185 211.713223,4.02771245 C211.337896,3.81969215 210.892593,3.6097634 210.421207,3.388384 C208.928169,2.68607693 207.069345,1.81200997 206.300243,0.458287643 C206.16856,0.226729877 205.941455,0.0645122108 205.678726,0.0155288371 C205.417269,-0.0334545366 205.146907,0.0346132684 204.939523,0.203192412 C202.900033,1.86353794 201.682446,4.94885433 201.682446,8.4578451 C201.683082,12.6214319 203.290628,16.4154168 205.984077,18.6063095 C210.323877,22.1388378 215.134426,22.6095871 216.707619,22.6662042 C219.715325,28.8839119 219.815837,34.121316 219.817109,34.1970176 C219.822198,34.693849 220.226788,35.094622 220.72362,35.094622 C220.726164,35.094622 220.729345,35.094622 220.731253,35.094622 C221.231902,35.090169 221.633947,34.6830345 221.63013,34.1823862 C221.628858,34.0131709 221.60214,32.4978671 221.154292,30.1880147 C221.361676,29.5887636 221.661301,28.8113911 222.046171,27.9360518 C222.14541,27.9398687 222.296177,27.9449579 222.502289,27.9449579 C224.31022,27.9449579 229.894961,27.6014381 233.531818,23.5962522 C235.963174,20.9180703 237.250737,16.5572778 236.811795,12.4859324 Z" id="Path"></path>
            </g>
        </g>
    </g>
</svg>