
<svg width="771px" height="234px" viewBox="0 0 771 234" version="1.1" xmlns="http://www.w3.org/2000/svg" xmlns:xlink="http://www.w3.org/1999/xlink">
    <g id="Page-1" stroke="none" stroke-width="1" fill="none" fill-rule="evenodd">
        <g id="Group" fill="#337352" transform="translate(0.059147, 0.177000)">
            <path d="M101.154853,0 C95.5528532,16.502 85.8808532,30.768 72.6548532,44.813 C49.9016832,68.97494 28.3981407,91.8108047 28.5195344,124.713845 L28.5298532,125.714 L28.5288532,125.807 C28.5178532,126.083 26.9448532,148.743 41.6888532,170.806 C42.0418532,171.335 42.9438532,170.958 42.7228532,170.372 C38.9048532,160.25 39.7858532,152.204 39.8538532,150.055 C39.5235748,122.900882 61.7110323,99.0244244 85.4363277,76.0983661 L86.9209714,74.6667039 C87.4163936,74.1898817 87.9122936,73.7134509 88.4084816,73.2373905 L89.99281,71.7192811 C91.0493764,70.7080128 92.1063332,69.69832 93.1618532,68.69 C106.498853,55.948 120.439853,42.564 129.840853,29.528 C136.052853,20.832 141.251853,11.317 143.214853,1.723 C148.998853,3.019 154.621853,4.74 160.047853,6.854 C163.861853,66.444 54.4838532,110.567 54.4838532,168.018 C54.4838532,168.018 52.0118532,216.573 117.216853,233.823 L116.995853,233.763 L113.684965,233.765016 C51.7912087,231.833587 1.96336101,182.028452 2.84217094e-14,120.141956 L2.84217094e-14,112.586487 C1.81484416,54.9257007 45.1848849,7.75199184 101.154853,0 Z M625.235853,186.377 C628.793853,186.377 632.021853,186.976 634.922853,188.174 C637.822853,189.374 640.258853,191.113 642.229853,193.395 L636.198853,198.962 C633.298853,195.908 629.798853,194.38 625.700853,194.38 C623.108853,194.38 620.807853,194.922 618.798853,196.004 C616.787853,197.087 615.221853,198.614 614.099853,200.587 C612.977853,202.559 612.418853,204.82 612.418853,207.373 C612.418853,209.886 612.977853,212.129 614.099853,214.101 C615.221853,216.072 616.777853,217.609 618.768853,218.712 C620.760853,219.814 623.032853,220.364 625.584853,220.364 C628.290853,220.364 630.725853,219.784 632.891853,218.625 L632.891853,206.734 L641.475853,206.734 L641.475853,223.207 C639.271853,224.869 636.720853,226.146 633.819853,227.034 C630.920853,227.923 628.000853,228.368 625.061853,228.368 C620.847853,228.368 617.057853,227.469 613.693853,225.671 C610.330853,223.874 607.690853,221.379 605.776853,218.19 C603.863853,215 602.906853,211.395 602.906853,207.373 C602.906853,203.352 603.863853,199.746 605.776853,196.555 C607.690853,193.365 610.349853,190.872 613.752853,189.073 C617.154853,187.275 620.981853,186.377 625.235853,186.377 Z M554.186853,186.377 C558.400853,186.377 562.190853,187.285 565.555853,189.103 C568.918853,190.921 571.566853,193.423 573.500853,196.613 C575.433853,199.803 576.400853,203.39 576.400853,207.373 C576.400853,211.356 575.433853,214.941 573.500853,218.131 C571.566853,221.321 568.918853,223.825 565.555853,225.643 C562.190853,227.461 558.400853,228.368 554.186853,228.368 C549.972853,228.368 546.172853,227.461 542.789853,225.643 C539.405853,223.825 536.757853,221.321 534.843853,218.131 C532.930853,214.941 531.973853,211.356 531.973853,207.373 C531.973853,203.39 532.930853,199.803 534.843853,196.613 C536.757853,193.423 539.405853,190.921 542.789853,189.103 C546.172853,187.285 549.972853,186.377 554.186853,186.377 Z M740.829853,187.072 L761.013853,211.722 L761.013853,187.072 L770.293853,187.072 L770.293853,227.672 L762.579853,227.672 L742.337853,203.023 L742.337853,227.672 L733.057853,227.672 L733.057853,187.072 L740.829853,187.072 Z M702.840853,187.072 L702.840853,194.612 L681.495853,194.612 L681.495853,203.428 L700.346853,203.428 L700.346853,210.736 L681.495853,210.736 L681.495853,220.132 L703.594853,220.132 L703.594853,227.672 L672.157853,227.672 L672.157853,187.072 L702.840853,187.072 Z M279.508853,187.072 L279.508853,203.081 L297.952853,203.081 L297.952853,187.072 L307.348853,187.072 L307.348853,227.672 L297.952853,227.672 L297.952853,211.026 L279.508853,211.026 L279.508853,227.672 L270.112853,227.672 L270.112853,187.072 L279.508853,187.072 Z M342.590853,187.072 L353.435853,205.11 L364.282853,187.072 L373.504853,187.072 L357.727853,213.289 L357.727853,227.672 L348.331853,227.672 L348.331853,213.172 L332.614853,187.072 L342.590853,187.072 Z M418.468853,187.072 C422.876853,187.072 426.770853,187.914 430.154853,189.595 C433.538853,191.277 436.167853,193.647 438.043853,196.7 C439.918853,199.755 440.855853,203.313 440.855853,207.373 C440.855853,211.432 439.918853,214.99 438.043853,218.045 C436.167853,221.099 433.538853,223.467 430.154853,225.15 C426.770853,226.832 422.876853,227.672 418.468853,227.672 L400.023853,227.672 L400.023853,187.072 L418.468853,187.072 Z M487.487853,187.072 C491.083853,187.072 494.205853,187.672 496.853853,188.871 C499.502853,190.069 501.542853,191.771 502.973853,193.974 C504.403853,196.178 505.119853,198.789 505.119853,201.804 C505.119853,204.82 504.393853,207.421 502.944853,209.606 C501.494853,211.791 499.434853,213.462 496.767853,214.623 L505.873853,227.672 L495.781853,227.672 L487.951853,216.362 L479.308853,216.362 L479.308853,227.672 L469.913853,227.672 L469.913853,187.072 L487.487853,187.072 Z M200.556853,33.356 C221.772853,54.609 234.892853,83.947 234.892853,116.35 C234.892853,166.366 203.632853,209.074 159.586853,226.022 C141.613853,216.078 133.450853,201.272 133.450853,182.749 C133.450853,132.282 224.510853,92.529 207.590853,45.866 C205.918853,41.317 203.462853,37.152 200.556853,33.356 Z M554.186853,194.38 C551.788853,194.38 549.623853,194.931 547.690853,196.033 C545.756853,197.135 544.239853,198.672 543.137853,200.645 C542.035853,202.616 541.484853,204.859 541.484853,207.373 C541.484853,209.886 542.035853,212.129 543.137853,214.101 C544.239853,216.072 545.756853,217.609 547.690853,218.712 C549.623853,219.814 551.788853,220.364 554.186853,220.364 C556.583853,220.364 558.748853,219.814 560.682853,218.712 C562.615853,217.609 564.133853,216.072 565.235853,214.101 C566.337853,212.129 566.889853,209.886 566.889853,207.373 C566.889853,204.859 566.337853,202.616 565.235853,200.645 C564.133853,198.672 562.615853,197.135 560.682853,196.033 C558.748853,194.931 556.583853,194.38 554.186853,194.38 Z M418.004853,194.786 L409.420853,194.786 L409.420853,219.959 L418.004853,219.959 C422.063853,219.959 425.302853,218.827 427.719853,216.566 C430.135853,214.303 431.344853,211.239 431.344853,207.373 C431.344853,203.506 430.135853,200.441 427.719853,198.179 C425.302853,195.918 422.063853,194.786 418.004853,194.786 Z M486.965853,194.729 L479.308853,194.729 L479.308853,208.88 L486.965853,208.88 C489.787853,208.88 491.933853,208.262 493.403853,207.025 C494.872853,205.787 495.606853,204.047 495.606853,201.804 C495.606853,199.524 494.872853,197.774 493.403853,196.555 C491.933853,195.337 489.787853,194.729 486.965853,194.729 Z M463.847853,30.883 C494.926853,30.883 505.285853,48.778 505.285853,74.204 L505.285853,97.749 L458.197853,97.749 L458.197853,128.828 C458.197853,132.03 460.080853,134.478 463.847853,134.478 C467.614853,134.478 469.497853,132.03 469.497853,128.828 L469.497853,108.11 L505.285853,108.11 L505.285853,115.644 C505.285853,140.81574 495.132997,158.605367 464.774018,158.958642 L463.847853,158.964 L463.847853,158.964 C432.768853,158.964 422.409853,141.07 422.409853,115.644 L422.409853,74.204 C422.409853,48.778 432.768853,30.883 463.847853,30.883 Z M310.597853,30.883 C342.617853,30.883 351.093853,50.661 351.093853,62.903 L351.093853,76.087 L316.248853,76.087 L316.248853,61.02 C316.248853,57.818 314.365853,55.37 310.597853,55.37 C306.830853,55.37 304.946853,57.818 304.946853,61.02 L304.946853,64.787 C304.946853,85.505 352.035853,83.621 352.035853,123.177 C352.035853,142.75524 342.805271,158.643404 311.551686,158.959209 L310.597853,158.964 L310.597853,158.964 C278.577853,158.964 269.159853,141.07 269.159853,125.061 L269.159853,110.935 L304.946853,110.935 L304.946853,128.828 C304.946853,132.03 306.830853,134.478 310.597853,134.478 C314.365853,134.478 316.248853,132.03 316.248853,128.828 L316.248853,124.119 C316.248853,99.632 270.101853,103.4 270.101853,66.671 C270.101853,47.836 281.402853,30.883 310.597853,30.883 Z M397.051853,5.455 L397.051853,33.709 L414.944853,33.709 L414.944853,63.845 L397.051853,63.845 L397.051853,122.235 C397.051853,126.003 397.992853,127.886 402.701853,127.886 L409.293853,127.886 L409.293853,156.139 C409.293853,156.139 404.711264,157.972425 392.834071,158.021977 L392.341853,158.023 L392.341853,158.023 C363.334853,158.023 361.263853,141.07 361.263853,122.235 L361.263853,5.603 L361.306226,5.60358682 L361.306226,5.60358682 L361.358548,5.6043055 C362.587437,5.62113042 375.52666,5.79479526 385.47601,5.78683546 L385.979261,5.78627254 C392.152476,5.7773588 397.051853,5.69476 397.051853,5.455 Z M651.750853,30.883 C681.887853,30.883 693.188853,44.069 693.188853,66.671 L693.188853,156.139 L661.168853,156.139 L659.285853,142.953 L657.401853,142.953 C657.401853,142.953 653.15606,157.723107 636.622635,158.018509 L636.117853,158.023 L636.117853,158.023 C620.107853,158.023 608.430853,146.72 608.430853,125.061 C608.430853,93.982 636.117853,87.767 653.635853,79.855 L657.401853,78.161 L657.401853,61.02 C657.401853,57.8924651 655.604462,55.4842683 652.010612,55.3739506 L651.750853,55.37 L651.750853,55.37 C647.983853,55.37 646.099853,57.818 646.099853,61.02 L646.099853,75.146 L610.312853,75.146 L610.312853,68.554 C610.312853,45.011 624.439853,30.883 651.750853,30.883 Z M550.484853,5.455 L550.484853,156.139 L514.696853,156.139 L514.696853,5.455 L550.484853,5.455 Z M601.273853,5.455 L601.273853,156.139 L565.485853,156.139 L565.485853,5.455 L601.273853,5.455 Z M736.438853,58.195 L740.206853,58.195 C740.206853,58.195 743.031853,29.941 770.343853,31.825 L770.343853,68.554 L767.516853,68.554 C752.448853,68.554 743.973853,73.262 743.973853,92.099 L743.973853,156.139 L708.185853,156.139 L708.185853,33.709 L742.090853,33.709 L736.438853,58.195 Z M657.401853,94.924 L652.692853,98.69 C647.419853,102.835 644.217853,108.11 644.217853,118.469 C644.217853,127.886 647.607853,130.711 651.374853,130.711 C656.572563,130.711 657.33571,125.594546 657.397394,120.229659 L657.401394,119.683411 L657.401394,119.683411 L657.401853,94.924 Z M463.847853,55.37 C460.080853,55.37 458.197853,57.818 458.197853,61.02 L458.197853,80.797 L469.497853,80.797 L469.497853,61.02 C469.497853,57.8924651 467.701416,55.4842683 464.10761,55.3739506 L463.847853,55.37 L463.847853,55.37 Z" id="Combined-Shape"></path>
        </g>
    </g>
</svg>