<svg xmlns="http://www.w3.org/2000/svg" width="272" height="82"><g fill="#317951" fill-rule="nonzero"><path d="M111.733 44.37V42.72c0-8.59-16.186-7.268-16.186-20.15 0-6.604 3.963-12.552 14.205-12.552 11.23 0 14.204 6.937 14.204 11.23v4.623h-12.223v-5.286c0-1.122-.66-1.981-1.981-1.981-1.323 0-1.982.859-1.982 1.981v1.322c0 7.267 16.516 6.605 16.516 20.48 0 6.937-3.304 12.552-14.534 12.552s-14.535-6.275-14.535-11.89v-4.956h12.553v6.275c0 1.122.66 1.982 1.982 1.982 1.322.003 1.981-.853 1.981-1.979zM140.072 1.101v9.908h6.274V21.58h-6.274v20.48c0 1.321.33 1.98 1.982 1.98h2.31v9.909s-1.651.66-5.944.66c-10.175 0-10.9-5.946-10.9-12.553V1.15c0 .004 12.552.18 12.552-.049zM165.482 44.37v-7.267h12.553v2.641c0 8.92-3.634 15.194-14.534 15.194-10.901 0-14.535-6.275-14.535-15.194v-14.53c0-8.92 3.634-15.194 14.535-15.194 10.9 0 14.534 6.275 14.534 15.194v8.256h-16.516v10.9c0 1.123.66 1.982 1.982 1.982s1.981-.856 1.981-1.982zm0-23.779c0-1.122-.66-1.981-1.981-1.981-1.323 0-1.982.859-1.982 1.981v6.938h3.963V20.59zM193.888 1.101V53.95h-12.553V1.1zM211.697 1.101V53.95h-12.552V1.1zM231.384 49.326s-1.519 5.286-7.464 5.286c-5.615 0-9.711-3.963-9.711-11.56 0-10.9 9.711-13.079 15.856-15.857l1.322-.592V20.59c0-1.122-.66-1.981-1.981-1.981-1.323 0-1.982.859-1.982 1.981v4.956h-12.552v-2.311c0-8.256 4.955-13.212 14.534-13.212 10.57 0 14.534 4.626 14.534 12.552v31.38h-11.23l-.66-4.626h-.666v-.004zm0-16.845l-1.652 1.322c-1.849 1.452-2.974 3.304-2.974 6.937 0 3.304 1.189 4.293 2.51 4.293 1.916 0 2.116-1.981 2.116-3.963v-8.59zM249.197 11.01h11.89l-1.982 8.589h1.322s.993-9.908 10.571-9.249v12.882h-.992c-5.286 0-8.256 1.652-8.256 8.256v22.46h-12.553V11.01zM95.337 65.218h3.23v13.948h-3.23zM115.184 65.218h6.338c1.515 0 2.851.287 4.016.866 1.16.579 2.066 1.392 2.71 2.441.646 1.049.969 2.273.969 3.669s-.323 2.616-.968 3.668c-.645 1.049-1.547 1.863-2.711 2.441-1.161.579-2.5.867-4.016.867h-6.338V65.218zm6.177 11.3c1.396 0 2.507-.39 3.339-1.164.83-.779 1.245-1.831 1.245-3.16 0-1.33-.414-2.382-1.245-3.16-.832-.779-1.943-1.165-3.34-1.165h-2.949v8.65h2.95zM153.845 79.166l-2.69-3.886h-2.968v3.886h-3.23V65.218h6.04c1.235 0 2.308.207 3.22.617.908.41 1.61.996 2.1 1.754.492.757.737 1.655.737 2.69 0 1.034-.249 1.929-.747 2.68-.498.75-1.206 1.325-2.122 1.721l3.129 4.486h-3.469zm-.817-10.69c-.505-.417-1.242-.628-2.213-.628h-2.63v4.861h2.63c.968 0 1.708-.214 2.213-.638.505-.424.757-1.024.757-1.792 0-.782-.252-1.386-.757-1.803zM175.758 78.472c-1.16-.625-2.072-1.484-2.728-2.582-.66-1.097-.986-2.328-.986-3.696 0-1.368.33-2.6.986-3.697.656-1.098 1.568-1.957 2.728-2.581 1.161-.625 2.47-.937 3.918-.937 1.449 0 2.75.312 3.907.937a7.006 7.006 0 012.729 2.581c.663 1.098.996 2.329.996 3.697 0 1.368-.333 2.602-.996 3.696a7.055 7.055 0 01-2.729 2.582c-1.157.624-2.458.936-3.907.936-1.452 0-2.757-.312-3.918-.936zm6.149-2.382a4.094 4.094 0 001.564-1.585c.379-.677.568-1.449.568-2.311 0-.863-.19-1.635-.568-2.312a4.094 4.094 0 00-1.564-1.585c-.663-.379-1.41-.568-2.231-.568-.824 0-1.568.19-2.23.568a4.094 4.094 0 00-1.565 1.585c-.379.677-.568 1.449-.568 2.312 0 .862.19 1.634.568 2.311a4.094 4.094 0 001.564 1.585c.663.379 1.407.568 2.231.568.82 0 1.564-.189 2.23-.568zM212.476 71.973h2.95v5.66c-.758.572-1.635 1.01-2.63 1.316-.997.305-2 .46-3.01.46-1.449 0-2.75-.31-3.907-.927a6.888 6.888 0 01-2.722-2.57c-.66-1.098-.985-2.336-.985-3.718 0-1.382.33-2.62.985-3.718.656-1.098 1.571-1.954 2.74-2.57 1.167-.618 2.483-.927 3.945-.927 1.22 0 2.332.207 3.328.617a6.592 6.592 0 012.512 1.793l-2.073 1.911c-.996-1.049-2.2-1.575-3.606-1.575-.89 0-1.68.186-2.37.558a4.007 4.007 0 00-1.614 1.575c-.386.677-.579 1.455-.579 2.332 0 .863.193 1.635.58 2.311a4.097 4.097 0 001.602 1.586c.684.379 1.466.568 2.343.568.93 0 1.768-.2 2.511-.596v-4.086zM242.53 76.578v2.592h-10.803V65.22h10.543v2.592h-7.333v3.03h6.478v2.512h-6.478v3.226zM271.205 65.218v13.948h-2.651l-6.955-8.47v8.47h-3.188V65.218h2.669l6.934 8.47v-8.47z"/><g><path d="M71.158 11.69c1.02 1.332 1.88 2.792 2.465 4.387 5.934 16.365-26.003 30.31-26.003 48.008 0 6.495 2.862 11.69 9.168 15.176 15.45-5.945 26.414-20.925 26.414-38.464-.004-11.36-4.606-21.65-12.044-29.107z"/><path d="M19.923 58.922c0-20.15 38.363-35.623 37.023-56.523a41.33 41.33 0 00-5.903-1.8c-.687 3.364-2.51 6.703-4.689 9.754-3.297 4.574-8.186 9.267-12.865 13.735-9.255 8.842-18.823 17.982-18.697 28.539-.024.754-.333 3.574 1.007 7.126.077.207-.239.337-.361.151-5.17-7.737-4.62-15.684-4.616-15.783v-.031c-.2-11.728 7.414-19.816 15.478-28.374C30.94 10.788 34.33 5.787 36.295 0 16.237 2.77.795 19.98.795 40.8c0 22.73 18.41 41.165 41.133 41.2-22.87-6.05-22.005-23.078-22.005-23.078z"/></g></g></svg>